<svg width="90" height="90" viewBox="0 0 90 90" fill="none" xmlns="http://www.w3.org/2000/svg">
<path d="M45 45L11.43 31.59L13.5 81H4.5L6.66 29.655L0 27L45 9L90 27L45 45ZM45 22.5C42.525 22.5 40.5 23.49 40.5 24.75C40.5 26.01 42.525 27 45 27C47.475 27 49.5 26.01 49.5 24.75C49.5 23.49 47.475 22.5 45 22.5ZM45 49.5L70.065 39.465C73.26 43.695 75.465 48.78 76.185 54.315C74.835 54.135 73.44 54 72 54C60.525 54 50.49 60.165 45 69.345C42.2134 64.6684 38.2601 60.7956 33.5271 58.1057C28.7942 55.4158 23.4439 54.0011 18 54C16.56 54 15.165 54.135 13.815 54.315C14.535 48.78 16.74 43.695 19.935 39.465L45 49.5Z" fill="white"/>
</svg>
