<svg width="67" height="90" viewBox="0 0 67 90" fill="none" xmlns="http://www.w3.org/2000/svg">
<g clip-path="url(#clip0_118_2681)">
<path d="M65.3598 20.8477C67.5408 18.6504 67.5408 15.082 65.3598 12.8848C63.1788 10.6875 59.6369 10.6875 57.4559 12.8848L1.62256 69.1348C-0.558431 71.332 -0.558431 74.9004 1.62256 77.0977C3.80355 79.2949 7.34547 79.2949 9.52646 77.0977L65.3598 20.8477ZM22.3332 22.5C22.3332 19.5163 21.1567 16.6548 19.0626 14.545C16.9684 12.4353 14.1282 11.25 11.1666 11.25C8.20498 11.25 5.3647 12.4353 3.27054 14.545C1.17639 16.6548 -9.76902e-05 19.5163 -9.76902e-05 22.5C-9.76902e-05 25.4837 1.17639 28.3452 3.27054 30.455C5.3647 32.5647 8.20498 33.75 11.1666 33.75C14.1282 33.75 16.9684 32.5647 19.0626 30.455C21.1567 28.3452 22.3332 25.4837 22.3332 22.5ZM66.9999 67.5C66.9999 64.5163 65.8234 61.6548 63.7293 59.5451C61.6351 57.4353 58.7948 56.25 55.8332 56.25C52.8717 56.25 50.0314 57.4353 47.9372 59.5451C45.8431 61.6548 44.6666 64.5163 44.6666 67.5C44.6666 70.4837 45.8431 73.3452 47.9372 75.4549C50.0314 77.5647 52.8717 78.75 55.8332 78.75C58.7948 78.75 61.6351 77.5647 63.7293 75.4549C65.8234 73.3452 66.9999 70.4837 66.9999 67.5Z" fill="white"/>
</g>
<defs>
<clipPath id="clip0_118_2681">
<rect width="67" height="90" fill="white"/>
</clipPath>
</defs>
</svg>
