<svg width="90" height="90" viewBox="0 0 90 90" fill="none" xmlns="http://www.w3.org/2000/svg">
<path d="M45 15C48.9782 15 52.7936 16.5804 55.6066 19.3934C58.4196 22.2064 60 26.0218 60 30C60 33.9782 58.4196 37.7936 55.6066 40.6066C52.7936 43.4196 48.9782 45 45 45C41.0218 45 37.2064 43.4196 34.3934 40.6066C31.5804 37.7936 30 33.9782 30 30C30 26.0218 31.5804 22.2064 34.3934 19.3934C37.2064 16.5804 41.0218 15 45 15ZM45 52.5C61.575 52.5 75 59.2125 75 67.5V75H15V67.5C15 59.2125 28.425 52.5 45 52.5Z" fill="white"/>
</svg>
